<svg width="216" height="23" viewBox="0 0 216 23" fill="none" xmlns="http://www.w3.org/2000/svg">
<path d="M1 16.75V16.75C1 17.9122 1 18.4934 1.11987 18.9719C1.4785 20.4036 2.59638 21.5215 4.02808 21.8801C4.50665 22 5.08776 22 6.25 22H7.6875M1 6.25V6.25C1 5.08776 1 4.50665 1.11987 4.02808C1.4785 2.59638 2.59638 1.4785 4.02808 1.11987C4.50665 1 5.08776 1 6.25 1H7.6875M215 6.25V6.25C215 5.08776 215 4.50665 214.88 4.02808C214.522 2.59638 213.404 1.4785 211.972 1.11987C211.493 1 210.912 1 209.75 1H208.313M215 16.75V16.75C215 17.9122 215 18.4934 214.88 18.9719C214.522 20.4036 213.404 21.5215 211.972 21.8801C211.493 22 210.912 22 209.75 22H208.313" stroke="white"/>
<path d="M7 17V6H8.38766L14.4587 10.1171H14.7189L20.7899 6H22.1776V17H20.6685V7.80714L15.2219 11.5H13.9557L8.52643 7.80714V17H7Z" fill="white"/>
<path d="M27.361 17V10.8086H39.503L39.1214 12.1757H28.8701V15.6171H42.5386L42.1569 17H27.361ZM27.361 6H42.5386L42.1569 7.36714H27.361V6Z" fill="white"/>
<path d="M47.6034 17V6H48.9911L55.0621 10.1171H55.3223L61.3933 6H62.781V17H61.2719V7.80714L55.8253 11.5H54.5591L49.1298 7.80714V17H47.6034Z" fill="white"/>
<path d="M67.4562 9.09571C67.4562 8.66619 67.5429 8.26286 67.7164 7.88571C67.9014 7.50857 68.1442 7.18381 68.4449 6.91143C68.7571 6.62857 69.1214 6.40857 69.5377 6.25143C69.954 6.08381 70.3992 6 70.8733 6H79.2166C79.6908 6 80.136 6.08381 80.5523 6.25143C80.9686 6.40857 81.327 6.62857 81.6277 6.91143C81.9399 7.18381 82.1828 7.50857 82.3562 7.88571C82.5413 8.26286 82.6338 8.66619 82.6338 9.09571V13.9043C82.6338 14.3338 82.5413 14.7371 82.3562 15.1143C82.1828 15.4914 81.9399 15.8214 81.6277 16.1043C81.327 16.3767 80.9686 16.5967 80.5523 16.7643C80.136 16.9214 79.6908 17 79.2166 17H70.8733C70.3992 17 69.954 16.9214 69.5377 16.7643C69.1214 16.5967 68.7571 16.3767 68.4449 16.1043C68.1442 15.8214 67.9014 15.4914 67.7164 15.1143C67.5429 14.7371 67.4562 14.3338 67.4562 13.9043V9.09571ZM68.9826 13.9043C68.9826 14.1348 69.0289 14.3548 69.1214 14.5643C69.2255 14.7738 69.3642 14.9571 69.5377 15.1143C69.7111 15.2714 69.9135 15.3971 70.1448 15.4914C70.3761 15.5752 70.6189 15.6171 70.8733 15.6171H79.2166C79.4826 15.6171 79.7312 15.5752 79.9625 15.4914C80.1938 15.3971 80.3961 15.2714 80.5696 15.1143C80.7431 14.9571 80.8761 14.7738 80.9686 14.5643C81.0726 14.3548 81.1247 14.1348 81.1247 13.9043V9.09571C81.1247 8.85476 81.0726 8.62952 80.9686 8.42C80.8761 8.21048 80.7431 8.02714 80.5696 7.87C80.3961 7.71286 80.1938 7.59238 79.9625 7.50857C79.7312 7.41429 79.4826 7.36714 79.2166 7.36714H70.8733C70.6189 7.36714 70.3761 7.41429 70.1448 7.50857C69.9135 7.59238 69.7111 7.71286 69.5377 7.87C69.3642 8.02714 69.2255 8.21048 69.1214 8.42C69.0289 8.62952 68.9826 8.85476 68.9826 9.09571V13.9043Z" fill="white"/>
<path d="M99.9241 6H110.158L109.794 7.36714H99.9241C99.6697 7.36714 99.4269 7.41429 99.1956 7.50857C98.9643 7.59238 98.762 7.71286 98.5885 7.87C98.415 8.02714 98.2763 8.21048 98.1722 8.42C98.0681 8.62952 98.0161 8.85476 98.0161 9.09571C98.0161 9.32619 98.0681 9.54619 98.1722 9.75571C98.2763 9.96524 98.415 10.1486 98.5885 10.3057C98.762 10.4629 98.9643 10.5886 99.1956 10.6829C99.4269 10.7667 99.6697 10.8086 99.9241 10.8086H108.267C108.742 10.8086 109.187 10.8924 109.603 11.06C110.019 11.2171 110.378 11.4371 110.679 11.72C110.991 11.9924 111.234 12.3171 111.407 12.6943C111.592 13.0714 111.685 13.4748 111.685 13.9043C111.685 14.3338 111.592 14.7371 111.407 15.1143C111.234 15.4914 110.991 15.8214 110.679 16.1043C110.378 16.3767 110.019 16.5967 109.603 16.7643C109.187 16.9214 108.742 17 108.267 17H98.0161L98.3977 15.6171H108.267C108.533 15.6171 108.776 15.5752 108.996 15.4914C109.227 15.3971 109.43 15.2714 109.603 15.1143C109.777 14.9571 109.91 14.7738 110.002 14.5643C110.106 14.3548 110.158 14.1348 110.158 13.9043C110.158 13.6633 110.106 13.4381 110.002 13.2286C109.91 13.019 109.777 12.8357 109.603 12.6786C109.43 12.5214 109.227 12.401 108.996 12.3171C108.776 12.2229 108.533 12.1757 108.267 12.1757H99.9241C99.45 12.1757 99.0048 12.0971 98.5885 11.94C98.1722 11.7724 97.8079 11.5524 97.4957 11.28C97.1951 10.9971 96.9522 10.6671 96.7672 10.29C96.5937 9.91286 96.507 9.51476 96.507 9.09571C96.507 8.66619 96.5937 8.26286 96.7672 7.88571C96.9522 7.50857 97.1951 7.18381 97.4957 6.91143C97.8079 6.62857 98.1722 6.40857 98.5885 6.25143C99.0048 6.08381 99.45 6 99.9241 6Z" fill="white"/>
<path d="M116.021 12.1914H127.799C128.065 12.1914 128.308 12.1495 128.527 12.0657C128.759 11.9714 128.961 11.8457 129.134 11.6886C129.308 11.5314 129.441 11.3481 129.533 11.1386C129.637 10.929 129.69 10.709 129.69 10.4786V9.09571C129.69 8.85476 129.637 8.62952 129.533 8.42C129.441 8.21048 129.308 8.02714 129.134 7.87C128.961 7.71286 128.759 7.59238 128.527 7.50857C128.296 7.41429 128.047 7.36714 127.781 7.36714H116.021V6H127.781C128.256 6 128.701 6.08381 129.117 6.25143C129.533 6.40857 129.892 6.62857 130.193 6.91143C130.505 7.18381 130.748 7.50857 130.921 7.88571C131.106 8.26286 131.199 8.66619 131.199 9.09571V10.4786C131.199 10.8976 131.106 11.2957 130.921 11.6729C130.748 12.05 130.505 12.38 130.193 12.6629C129.892 12.9352 129.533 13.1552 129.117 13.3229C128.712 13.48 128.273 13.5586 127.799 13.5586H117.547V17H116.021V12.1914Z" fill="white"/>
<path d="M135.535 6H137.061V10.9029H149.204V6H150.713V17H149.204V12.2857H137.061V17H135.535V6Z" fill="white"/>
<path d="M155.727 17V10.8086H167.869L167.487 12.1757H157.236V15.6171H170.904L170.523 17H155.727ZM155.727 6H170.904L170.523 7.36714H155.727V6Z" fill="white"/>
<path d="M175.478 17V12.1914H186.475C186.845 12.1914 187.192 12.1286 187.516 12.0029C187.84 11.8771 188.117 11.7043 188.348 11.4843C188.591 11.2643 188.782 11.0076 188.921 10.7143C189.06 10.421 189.129 10.1067 189.129 9.77143C189.129 9.43619 189.06 9.12714 188.921 8.84429C188.782 8.55095 188.591 8.29429 188.348 8.07429C188.117 7.85429 187.84 7.68143 187.516 7.55571C187.192 7.43 186.845 7.36714 186.475 7.36714H175.478V6H186.475C187.053 6 187.597 6.09952 188.106 6.29857C188.614 6.49762 189.054 6.77 189.424 7.11571C189.805 7.45095 190.106 7.84905 190.326 8.31C190.546 8.76048 190.655 9.24762 190.655 9.77143C190.655 10.2952 190.546 10.7876 190.326 11.2486C190.106 11.7095 189.805 12.1129 189.424 12.4586C189.054 12.7938 188.614 13.061 188.106 13.26C187.597 13.459 187.053 13.5586 186.475 13.5586H185.382L190.655 17H188.106L182.815 13.5586H177.004V17H175.478Z" fill="white"/>
<path d="M194.822 17V10.8086H206.964L206.583 12.1757H196.332V15.6171H210L209.618 17H194.822ZM194.822 6H210L209.618 7.36714H194.822V6Z" fill="white"/>
</svg>
