<svg width="206" height="48" viewBox="0 0 206 48" fill="none" xmlns="http://www.w3.org/2000/svg">
<rect x="0.5" y="0.5" width="205" height="47" rx="19.5" stroke="white"/>
<path d="M36.27 11.85V33H33.81V13.95H22.65V33H20.19V11.85H36.27ZM39.5998 25.53C39.5998 23.33 40.3298 21.49 41.7898 20.01C43.2498 18.53 45.1498 17.79 47.4898 17.79C49.8098 17.79 51.6898 18.53 53.1298 20.01C54.5898 21.49 55.3198 23.33 55.3198 25.53C55.3198 27.75 54.5898 29.6 53.1298 31.08C51.6898 32.56 49.8098 33.3 47.4898 33.3C45.1498 33.3 43.2498 32.56 41.7898 31.08C40.3298 29.6 39.5998 27.75 39.5998 25.53ZM42.0598 25.53C42.0598 27.17 42.5398 28.53 43.4998 29.61C44.4598 30.67 45.7898 31.2 47.4898 31.2C49.1898 31.2 50.5098 30.66 51.4498 29.58C52.4098 28.5 52.8898 27.15 52.8898 25.53C52.8898 23.91 52.4098 22.57 51.4498 21.51C50.5098 20.43 49.1898 19.89 47.4898 19.89C45.7898 19.89 44.4598 20.43 43.4998 21.51C42.5398 22.57 42.0598 23.91 42.0598 25.53ZM73.1184 30.9V36.96H70.6584V33H59.1984V36.96H56.7384V30.9H58.7184C59.5184 29.28 60.0884 27.48 60.4284 25.5C60.7684 23.52 60.9384 21.05 60.9384 18.09H71.1384V30.9H73.1184ZM61.1784 30.9H68.6784V20.19H63.3684C63.2284 24.67 62.4984 28.24 61.1784 30.9ZM76.2935 18.09H78.7535V20.28L78.3635 21.99H79.0535C79.3935 20.75 80.0735 19.74 81.0935 18.96C82.1135 18.18 83.4435 17.79 85.0835 17.79C87.2035 17.79 88.9135 18.52 90.2135 19.98C91.5335 21.44 92.1935 23.3 92.1935 25.56C92.1935 27.8 91.5335 29.65 90.2135 31.11C88.9135 32.57 87.2035 33.3 85.0835 33.3C83.4635 33.3 82.1335 32.92 81.0935 32.16C80.0735 31.38 79.3935 30.37 79.0535 29.13H78.3635L78.7535 30.81V38.46H76.2935V18.09ZM78.7535 25.56C78.7535 27.44 79.2735 28.85 80.3135 29.79C81.3735 30.73 82.7235 31.2 84.3635 31.2C85.9835 31.2 87.2835 30.73 88.2635 29.79C89.2435 28.85 89.7335 27.44 89.7335 25.56C89.7335 23.68 89.2435 22.27 88.2635 21.33C87.2835 20.37 85.9835 19.89 84.3635 19.89C82.7235 19.89 81.3735 20.36 80.3135 21.3C79.2735 22.24 78.7535 23.66 78.7535 25.56ZM95.381 25.53C95.381 23.33 96.111 21.49 97.571 20.01C99.031 18.53 100.931 17.79 103.271 17.79C105.591 17.79 107.471 18.53 108.911 20.01C110.371 21.49 111.101 23.33 111.101 25.53C111.101 27.75 110.371 29.6 108.911 31.08C107.471 32.56 105.591 33.3 103.271 33.3C100.931 33.3 99.031 32.56 97.571 31.08C96.111 29.6 95.381 27.75 95.381 25.53ZM97.841 25.53C97.841 27.17 98.321 28.53 99.281 29.61C100.241 30.67 101.571 31.2 103.271 31.2C104.971 31.2 106.291 30.66 107.231 29.58C108.191 28.5 108.671 27.15 108.671 25.53C108.671 23.91 108.191 22.57 107.231 21.51C106.291 20.43 104.971 19.89 103.271 19.89C101.571 19.89 100.241 20.43 99.281 21.51C98.321 22.57 97.841 23.91 97.841 25.53ZM114.607 23.19C114.607 20.31 115.227 18.13 116.467 16.65C117.727 15.15 119.727 14 122.467 13.2C124.187 12.72 125.307 12.33 125.827 12.03C126.347 11.73 126.677 11.3 126.817 10.74H129.787C129.627 11.62 129.217 12.34 128.557 12.9C127.917 13.46 127.287 13.85 126.667 14.07C126.067 14.27 124.987 14.57 123.427 14.97C123.127 15.05 122.907 15.11 122.767 15.15C120.727 15.67 119.217 16.41 118.237 17.37C117.277 18.31 116.707 19.65 116.527 21.39L115.837 23.1H116.527C116.867 21.5 117.647 20.22 118.867 19.26C120.087 18.28 121.557 17.79 123.277 17.79C125.537 17.79 127.277 18.49 128.497 19.89C129.737 21.27 130.357 23.09 130.357 25.35C130.357 27.73 129.687 29.65 128.347 31.11C127.007 32.57 125.057 33.3 122.497 33.3C119.937 33.3 117.977 32.44 116.617 30.72C115.277 29 114.607 26.49 114.607 23.19ZM117.067 25.68C117.067 27.22 117.527 28.53 118.447 29.61C119.387 30.67 120.737 31.2 122.497 31.2C124.317 31.2 125.667 30.7 126.547 29.7C127.447 28.68 127.897 27.24 127.897 25.38C127.897 23.64 127.497 22.29 126.697 21.33C125.917 20.37 124.707 19.89 123.067 19.89C121.247 19.89 119.787 20.41 118.687 21.45C117.607 22.49 117.067 23.9 117.067 25.68ZM145.015 18.09H147.445V33H145.015V26.58H136.615V33H134.155V18.09H136.615V24.48H145.015V18.09ZM150.957 25.35C150.957 22.99 151.617 21.14 152.937 19.8C154.277 18.46 156.027 17.79 158.187 17.79C160.307 17.79 161.997 18.43 163.257 19.71C164.517 20.99 165.147 22.77 165.147 25.05V26.01H153.357C153.437 27.57 153.887 28.84 154.707 29.82C155.547 30.78 156.827 31.26 158.547 31.26C159.787 31.26 160.807 30.97 161.607 30.39C162.407 29.79 162.937 28.92 163.197 27.78H165.657C165.497 28.44 165.257 29.06 164.937 29.64C164.637 30.22 164.217 30.8 163.677 31.38C163.157 31.96 162.447 32.43 161.547 32.79C160.667 33.13 159.667 33.3 158.547 33.3C156.027 33.3 154.127 32.56 152.847 31.08C151.587 29.58 150.957 27.67 150.957 25.35ZM153.357 24.15H162.747C162.747 22.91 162.347 21.89 161.547 21.09C160.747 20.27 159.627 19.86 158.187 19.86C156.747 19.86 155.577 20.27 154.677 21.09C153.797 21.91 153.357 22.93 153.357 24.15ZM168.447 25.35C168.447 22.99 169.107 21.14 170.427 19.8C171.767 18.46 173.517 17.79 175.677 17.79C177.797 17.79 179.487 18.43 180.747 19.71C182.007 20.99 182.637 22.77 182.637 25.05V26.01H170.847C170.927 27.57 171.377 28.84 172.197 29.82C173.037 30.78 174.317 31.26 176.037 31.26C177.277 31.26 178.297 30.97 179.097 30.39C179.897 29.79 180.427 28.92 180.687 27.78H183.147C182.987 28.44 182.747 29.06 182.427 29.64C182.127 30.22 181.707 30.8 181.167 31.38C180.647 31.96 179.937 32.43 179.037 32.79C178.157 33.13 177.157 33.3 176.037 33.3C173.517 33.3 171.617 32.56 170.337 31.08C169.077 29.58 168.447 27.67 168.447 25.35ZM170.847 24.15H180.237C180.237 22.91 179.837 21.89 179.037 21.09C178.237 20.27 177.117 19.86 175.677 19.86C174.237 19.86 173.067 20.27 172.167 21.09C171.287 21.91 170.847 22.93 170.847 24.15Z" fill="white"/>
</svg>
